<?xml version="1.0" encoding="utf-8"?>
<!-- Generator: Adobe Illustrator 26.0.3, SVG Export Plug-In . SVG Version: 6.00 Build 0)  -->
<svg version="1.1" xmlns="http://www.w3.org/2000/svg" xmlns:xlink="http://www.w3.org/1999/xlink" x="0px" y="0px"
	 viewBox="0 0 90 90" style="enable-background:new 0 0 90 90;" xml:space="preserve">
<style type="text/css">
	.st0{opacity:1.000000e-02;fill:none;stroke:#FFFFFF;stroke-width:2.500000e-02;stroke-miterlimit:10;}
	.st1{fill:#DA291C;}
	.st2{fill:#FFFFFF;}
	.st3{fill:#D92C27;}
	.st4{fill:#FCFCFC;}
</style>
<g id="Layer_1">
	<g>
		<g>
			<circle class="st3" cx="45" cy="54.9" r="34.2"/>
			<g>
				<path class="st2" d="M36.1,56.1c-4.4,0-7.9-3.6-7.9-7.9s3.6-7.9,7.9-7.9s7.9,3.6,7.9,7.9S40.5,56.1,36.1,56.1z M36.1,41.9
					c-3.5,0-6.3,2.8-6.3,6.3c0,3.5,2.8,6.3,6.3,6.3c3.5,0,6.3-2.8,6.3-6.3C42.4,44.7,39.6,41.9,36.1,41.9z"/>
				<path class="st2" d="M49.1,69.8H22.2c-0.3,0-0.5-0.1-0.7-0.3c-0.2-0.2-0.2-0.5-0.1-0.7c0-0.1,3.6-11.3,14.2-11.3
					c11.6,0,14.2,11.3,14.3,11.4c0.1,0.2,0,0.5-0.2,0.7C49.6,69.7,49.3,69.8,49.1,69.8z M23.4,68.2H48c-0.9-2.6-3.9-9.1-12.3-9.1
					C28.1,59.1,24.6,65.5,23.4,68.2z"/>
				<g>
					<path class="st2" d="M54.6,47c-3.2,0-5.8-2.6-5.8-5.8s2.6-5.8,5.8-5.8s5.8,2.6,5.8,5.8S57.8,47,54.6,47z M54.6,37.1
						c-2.3,0-4.1,1.8-4.1,4.1s1.8,4.1,4.1,4.1s4.1-1.8,4.1-4.1S56.8,37.1,54.6,37.1z"/>
					<path class="st2" d="M63.6,57.1H44.9c-0.3,0-0.5-0.1-0.7-0.3C44,56.6,44,56.3,44,56c0-0.1,2.6-8.1,10.2-8.1
						c8.3,0,10.2,8.1,10.2,8.2c0.1,0.2,0,0.5-0.2,0.7C64.1,57,63.9,57.1,63.6,57.1z M46.1,55.4h16.4c-0.7-1.9-2.9-5.8-8.2-5.8
						c-2.7,0-4.9,1.1-6.7,3.4C46.9,53.9,46.4,54.8,46.1,55.4z"/>
				</g>
				<g>
					<path class="st2" d="M57.5,59.6l1.4,2.9c0.1,0.1,0.2,0.2,0.4,0.3l3.2,0.5c0.4,0.1,0.6,0.5,0.3,0.8l-2.3,2.3
						c-0.1,0.1-0.2,0.3-0.1,0.4l0.5,3.2c0.1,0.4-0.3,0.7-0.7,0.5l-2.9-1.5c-0.1-0.1-0.3-0.1-0.5,0L54,70.4c-0.4,0.2-0.8-0.1-0.7-0.5
						l0.5-3.2c0-0.2,0-0.3-0.1-0.4L51.4,64c-0.3-0.3-0.1-0.8,0.3-0.8l3.2-0.5c0.2,0,0.3-0.1,0.4-0.3l1.4-2.9
						C56.8,59.2,57.3,59.2,57.5,59.6z"/>
					<path class="st2" d="M60.4,70.6c-0.1,0-0.2,0-0.3-0.1L57.2,69c-0.1,0-0.2,0-0.3,0l-2.9,1.5c-0.2,0.1-0.5,0.1-0.7,0
						c-0.2-0.1-0.3-0.4-0.3-0.6l0.5-3.2c0-0.1,0-0.2-0.1-0.3l-2.3-2.3c-0.2-0.2-0.2-0.4-0.2-0.7c0.1-0.2,0.3-0.4,0.5-0.4l3.2-0.5
						c0.1,0,0.2-0.1,0.2-0.2l1.4-2.9c0.1-0.2,0.3-0.4,0.6-0.4c0,0,0,0,0,0c0.3,0,0.5,0.1,0.6,0.4l1.4,2.9c0,0.1,0.1,0.2,0.2,0.2
						l3.2,0.5c0.2,0,0.5,0.2,0.5,0.4c0.1,0.2,0,0.5-0.2,0.7l-2.3,2.3c-0.1,0.1-0.1,0.2-0.1,0.3l0.5,3.2c0,0.2-0.1,0.5-0.3,0.6
						C60.6,70.6,60.5,70.6,60.4,70.6z M57.1,68.7c0.1,0,0.2,0,0.3,0.1l2.9,1.5c0.1,0.1,0.2,0,0.3,0c0.1-0.1,0.1-0.2,0.1-0.3
						l-0.5-3.2c0-0.2,0-0.4,0.2-0.6l2.3-2.3c0.1-0.1,0.1-0.2,0.1-0.3c0-0.1-0.1-0.2-0.3-0.2l-3.2-0.5c-0.2,0-0.4-0.2-0.5-0.4
						l-1.4-2.9c-0.1-0.1-0.2-0.2-0.3-0.2l0,0c-0.1,0-0.2,0.1-0.3,0.2l-1.4,2.9c-0.1,0.2-0.3,0.3-0.5,0.4l-3.2,0.5
						c-0.1,0-0.2,0.1-0.3,0.2c0,0.1,0,0.2,0.1,0.3l2.3,2.3c0.2,0.1,0.2,0.4,0.2,0.6l-0.5,3.2c0,0.1,0,0.2,0.1,0.3
						c0.1,0.1,0.2,0.1,0.3,0l2.9-1.5C56.8,68.7,57,68.7,57.1,68.7z"/>
				</g>
			</g>
		</g>
		<rect class="st0" width="90" height="90"/>
	</g>
</g>
<g id="Layer_2">
</g>
</svg>
