<?xml version="1.0" encoding="utf-8"?>
<!-- Generator: Adobe Illustrator 26.0.3, SVG Export Plug-In . SVG Version: 6.00 Build 0)  -->
<svg version="1.1" xmlns="http://www.w3.org/2000/svg" xmlns:xlink="http://www.w3.org/1999/xlink" x="0px" y="0px"
	 viewBox="0 0 90 90" style="enable-background:new 0 0 90 90;" xml:space="preserve">
<style type="text/css">
	.st0{opacity:1.000000e-02;fill:none;stroke:#FFFFFF;stroke-width:2.500000e-02;stroke-miterlimit:10;}
	.st1{fill:#DA291C;}
	.st2{fill:#FFFFFF;}
	.st3{fill:#D92C27;}
	.st4{fill:#FCFCFC;}
</style>
<g id="Layer_1">
	<g>
		<g>
			<circle class="st3" cx="45" cy="54.9" r="34.2"/>
			<g>
				<path class="st2" d="M67.3,53l-0.9-0.9c-1.4-1.5-2.9-3-4.4-4.4c0-2.2,0-4.5,0-6.7l0-0.9c0-1.7-1-2.8-2.8-2.8l-1.5,0
					c-1.9,0-3.9,0-5.9,0h-0.2c-0.1,0-0.1,0-0.1,0h0c0,0,0,0-0.1,0c-1.7-1.7-3.4-3.5-5.1-5.1c-0.3-0.3-0.6-0.5-0.9-0.7
					c-0.1-0.1-0.2-0.2-0.3-0.2c-0.2-0.1-0.4-0.2-0.6-0.2l-0.7,0c-0.2,0-0.4,0.1-0.6,0.2c-0.1,0.1-0.2,0.2-0.3,0.2
					c-0.3,0.2-0.6,0.4-0.9,0.7c-1.5,1.5-3.1,3-5.2,5.1c0,0,0,0,0,0c0,0,0,0,0,0c-1.9,0-3.7,0-5.6,0c-0.7,0-1.3,0-2,0h0
					c-1.8,0-2.8,1-2.8,2.8c0,0.7,0,1.3,0,2c0,1.8,0,3.7,0,5.6c0,0,0,0,0,0c0,0,0,0,0,0c-1.4,1.4-3.3,3.3-5.2,5.1
					c-0.3,0.3-0.5,0.6-0.7,0.9c-0.1,0.1-0.1,0.2-0.2,0.3c-0.1,0.2-0.2,0.4-0.2,0.6l0,0.7c0,0.2,0.1,0.4,0.2,0.6
					c0.1,0.1,0.2,0.2,0.2,0.3c0.2,0.3,0.4,0.6,0.7,0.9c0.9,0.9,1.7,1.8,2.6,2.6c0.8,0.8,1.7,1.7,2.5,2.6c0,1.8,0,3.7,0,5.5
					c0,0.7,0,1.4,0,2.1c0,1.7,1,2.7,2.7,2.8c0.7,0,1.4,0,2.1,0c1.8,0,3.7,0,5.5,0c0.9,0.9,1.7,1.7,2.6,2.6c0.8,0.9,1.7,1.7,2.6,2.6
					c0.3,0.3,0.6,0.5,0.9,0.7c0.1,0.1,0.2,0.2,0.3,0.2c0.2,0.1,0.4,0.2,0.6,0.2l0.7,0c0,0,0,0,0,0c0.2,0,0.4-0.1,0.6-0.2
					c0.1-0.1,0.2-0.2,0.3-0.2c0.3-0.2,0.6-0.4,0.9-0.7c1.7-1.6,3.4-3.4,5.1-5.1c0,0,0.1,0,0.1,0c0,0,0,0,0.1,0c0,0,0,0,0,0
					c1.9,0,3.9,0,5.7,0l1.8,0c0,0,0,0,0,0c1.7,0,2.7-1.1,2.7-2.7c0-0.8,0-1.5,0-2.3c0-1.8,0-3.6,0-5.4c1.6-1.5,3.2-3.1,4.7-4.6
					l0.6-0.6C68.6,55.7,68.6,54.3,67.3,53z M65.8,55.6l-0.6,0.6c-1.5,1.5-3.1,3.1-4.7,4.7c-0.4,0.4-0.6,0.9-0.6,1.4
					c0,1.8,0,3.6,0,5.4c0,0.8,0,1.5,0,2.3c0,0.6-0.2,0.7-0.7,0.7c0,0,0,0,0,0l-1.8,0c-1.9,0-3.8,0-5.7,0l0,0c-0.7,0-1.2,0.2-1.6,0.7
					c-1.7,1.7-3.4,3.4-5.1,5.1c-0.2,0.2-0.4,0.3-0.6,0.5c0,0-0.1,0-0.1,0.1l-0.1,0c0,0-0.1,0-0.1-0.1c-0.2-0.2-0.4-0.3-0.6-0.5
					c-0.9-0.9-1.7-1.7-2.6-2.6c-0.8-0.9-1.7-1.7-2.6-2.6c-0.3-0.3-0.9-0.6-1.4-0.6c-1.9,0-3.7,0-5.6,0c-0.7,0-1.4,0-2.1,0
					c-0.6,0-0.7-0.1-0.7-0.7c0-0.7,0-1.4,0-2.1c0-1.8,0-3.7,0-5.6c0-0.5-0.2-1-0.6-1.4c-0.9-0.9-1.7-1.8-2.6-2.6
					c-0.8-0.9-1.7-1.7-2.6-2.6c-0.2-0.2-0.3-0.4-0.5-0.6c0,0,0-0.1-0.1-0.1l0-0.1c0,0,0-0.1,0.1-0.1c0.2-0.2,0.3-0.4,0.5-0.6
					c1.9-1.9,3.7-3.7,5.2-5.1c0.4-0.4,0.6-0.9,0.6-1.5c0-1.9,0-3.7,0-5.6c0-0.7,0-1.3,0-2c0-0.6,0.1-0.7,0.7-0.7h0c0.7,0,1.3,0,2,0
					c1.8,0,3.7,0,5.5,0l0,0c0.6,0,1.1-0.2,1.5-0.6c2.1-2.1,3.7-3.6,5.2-5.1c0.2-0.2,0.4-0.3,0.6-0.5c0,0,0.1,0,0.1-0.1l0.1,0
					c0,0,0.1,0,0.1,0.1c0.2,0.2,0.4,0.3,0.6,0.5c1.7,1.7,3.4,3.4,5.1,5.1c0.5,0.5,1,0.7,1.6,0.7H52c1.9,0,3.9,0,5.8,0l1.5,0
					c0.6,0,0.7,0.1,0.7,0.7l0,0.9c0,2.2,0,4.5,0,6.7c0,0.6,0.2,1,0.6,1.4c1.5,1.5,3,3,4.4,4.4l0.9,0.9
					C66.3,54.9,66.3,55.1,65.8,55.6z"/>
				<path class="st2" d="M38.2,54.4c3,0,5.5-2.5,5.6-5.5c0-1.5-0.5-2.9-1.6-3.9c-1-1.1-2.5-1.7-3.9-1.7h0c-3,0-5.5,2.5-5.5,5.5
					C32.6,51.8,35.1,54.3,38.2,54.4L38.2,54.4z M34.7,48.7c0-1.9,1.6-3.4,3.5-3.4h0c0.9,0,1.8,0.4,2.5,1.1c0.7,0.7,1,1.5,1,2.5
					c0,1.9-1.6,3.5-3.5,3.5l0,0C36.3,52.3,34.7,50.7,34.7,48.7z"/>
				<path class="st2" d="M50.3,55.4L50.3,55.4c-3,0-5.6,2.5-5.6,5.5c0,1.5,0.6,2.9,1.6,4c1,1.1,2.4,1.7,3.9,1.7h0
					c3,0,5.5-2.5,5.6-5.5c0-1.5-0.6-2.9-1.6-4C53.2,56,51.8,55.4,50.3,55.4z M50.3,64.5L50.3,64.5c-1,0-1.8-0.4-2.5-1
					c-0.7-0.7-1-1.6-1-2.5c0-1.9,1.6-3.4,3.5-3.4h0c0.9,0,1.8,0.4,2.5,1c0.7,0.7,1,1.6,1,2.5C53.8,62.9,52.2,64.5,50.3,64.5z"/>
				<path class="st2" d="M53,46.3c-0.4-0.4-1.1-0.4-1.5,0L36,61.8c-0.4,0.4-0.4,1.1,0,1.5c0.2,0.2,0.5,0.3,0.7,0.3
					c0.3,0,0.5-0.1,0.7-0.3L53,47.7C53.4,47.3,53.5,46.7,53,46.3z"/>
			</g>
		</g>
		<rect class="st0" width="90" height="90"/>
	</g>
</g>
<g id="Layer_2">
</g>
</svg>
