<?xml version="1.0" encoding="utf-8"?>
<!-- Generator: Adobe Illustrator 26.0.3, SVG Export Plug-In . SVG Version: 6.00 Build 0)  -->
<svg version="1.1" xmlns="http://www.w3.org/2000/svg" xmlns:xlink="http://www.w3.org/1999/xlink" x="0px" y="0px"
	 viewBox="0 0 90 90" style="enable-background:new 0 0 90 90;" xml:space="preserve">
<style type="text/css">
	.st0{opacity:1.000000e-02;fill:none;stroke:#FFFFFF;stroke-width:2.500000e-02;stroke-miterlimit:10;}
	.st1{fill:#DA291C;}
	.st2{fill:#FFFFFF;}
	.st3{fill:#D92C27;}
	.st4{fill:#FCFCFC;}
</style>
<g id="Layer_1">
	<g>
		<g>
			<circle class="st3" cx="45" cy="54.9" r="34.2"/>
			<g>
				<path class="st2" d="M66.6,50.2c0-9.7-7.9-17.6-17.6-17.6c-4,0-8,1.4-11.1,4c-7.2,1.3-12.9,7.1-14.2,14.3
					c-0.8,4.8,0.4,9.7,3.3,13.6l-2.1,7.8c-0.1,0.3,0,0.6,0.2,0.9c0.2,0.2,0.4,0.2,0.6,0.2c0.1,0,0.2,0,0.3,0l9.5-3.1
					c5.7,1.8,10.9,1.4,15.1-1.1c0.7-0.4,1.3-0.9,2-1.4l8.1,4.3c0.3,0.1,0.6,0.1,0.9,0c0.3-0.2,0.4-0.5,0.4-0.8L61.1,63
					C64.6,59.7,66.6,55.1,66.6,50.2z M59.3,62.8l0.6,6.9l-7.6-4c-0.1-0.1-0.3-0.1-0.4-0.1c0,0-0.1,0-0.1,0
					c-5.5,0.8-10.2-0.4-13.6-3.3c-3.2-2.8-5.1-7.2-5.1-12c0-8.7,7.1-15.9,15.9-15.9c8.7,0,15.9,7.1,15.9,15.9
					c0,4.5-1.9,8.8-5.3,11.8C59.4,62.2,59.3,62.5,59.3,62.8z M35.7,68.5c-0.2-0.1-0.4-0.1-0.5,0l-8.2,2.7l1.8-6.7
					c0.1-0.3,0-0.6-0.2-0.8c-2.8-3.5-3.9-8.1-3.2-12.5c1-5.5,4.8-10.1,10-12.1c-2.6,3.1-4,7.1-4,11.1c0,5.4,2.1,10.2,5.7,13.3
					c3.3,2.8,7.7,4.2,12.8,3.9c-0.1,0.1-0.2,0.1-0.3,0.2C45.8,69.9,41,70.2,35.7,68.5z"/>
				<path class="st2" d="M54.5,44.5c-1.5-0.6-3.8-0.3-5.6,2.2c-1.7-2.4-4-2.6-5.5-2.1c-1.7,0.6-2.6,2.3-2.2,4.1
					c0.8,3.6,3.6,5.9,5.8,7.7c0.5,0.4,0.9,0.8,1.3,1.1c0.2,0.2,0.4,0.2,0.5,0.2c0.2,0,0.4-0.1,0.5-0.2c0.4-0.4,0.9-0.7,1.4-1.1
					c2.3-1.8,5.1-4.1,5.9-7.6C57.2,47,56.3,45.1,54.5,44.5z"/>
			</g>
		</g>
		<rect class="st0" width="90" height="90"/>
	</g>
</g>
<g id="Layer_2">
</g>
</svg>
