<?xml version="1.0" encoding="utf-8"?>
<!-- Generator: Adobe Illustrator 26.0.3, SVG Export Plug-In . SVG Version: 6.00 Build 0)  -->
<svg version="1.1" xmlns="http://www.w3.org/2000/svg" xmlns:xlink="http://www.w3.org/1999/xlink" x="0px" y="0px"
	 viewBox="0 0 90 90" style="enable-background:new 0 0 90 90;" xml:space="preserve">
<style type="text/css">
	.st0{opacity:1.000000e-02;fill:none;stroke:#FFFFFF;stroke-width:2.500000e-02;stroke-miterlimit:10;}
	.st1{fill:#DA291C;}
	.st2{fill:#FFFFFF;}
	.st3{fill:#D92C27;}
	.st4{fill:#FCFCFC;}
</style>
<g id="Layer_1">
	<g>
		<g>
			<circle class="st3" cx="45" cy="54.9" r="34.2"/>
			<g>
				<circle class="st2" cx="45.1" cy="50.2" r="4.3"/>
				<path class="st2" d="M53,62.4H36.6c0,0,2-6.6,8.2-6.6C51.6,55.8,53,62.4,53,62.4z"/>
			</g>
			<path class="st2" d="M45.4,80.5l-0.5,0c-0.6,0-1.1,0-1.7-0.1c-0.6,0-1.1-0.1-1.7-0.2l-0.5-0.1l-0.2-0.5c-1-2.3-2-3.5-3.3-4
				c-1.2-0.4-2.8-0.1-4.8,1.1l-0.4,0.2l-0.4-0.3c-0.9-0.5-1.8-1.1-2.6-1.8l-0.4-0.3l0.1-0.5c0.3-2.4,0.1-4-0.7-4.9
				c-0.8-0.9-2.4-1.4-4.7-1.4c0,0,0,0,0,0H23l-0.3-0.4c-0.5-0.9-1-1.8-1.4-2.8l-0.2-0.5l0.3-0.4c1.4-1.9,2-3.4,1.8-4.6
				c-0.2-1.3-1.3-2.5-3.5-3.8l-0.4-0.3l0-0.5c0-0.6,0-1.1,0.1-1.7c0-0.6,0.1-1.1,0.2-1.7l0.1-0.5l0.5-0.2c2.3-1,3.5-2,4-3.3
				c0.4-1.2,0.1-2.8-1.1-4.8l-0.2-0.4l0.3-0.4c0.6-0.9,1.1-1.8,1.8-2.6l0.3-0.4l0.5,0.1c2.4,0.3,4,0.1,4.9-0.7
				c0.9-0.8,1.4-2.4,1.4-4.7v-0.5l0.4-0.3c0.9-0.5,1.8-1,2.8-1.4l0.5-0.2l0.4,0.3c1.9,1.4,3.4,2,4.6,1.8c1.3-0.2,2.5-1.3,3.8-3.5
				l0.3-0.4l0.5,0c0.6,0,1.1,0,1.7,0.1c0.6,0,1.1,0.1,1.7,0.2l0.5,0.1l0.2,0.5c1,2.3,2,3.5,3.3,4c1.2,0.4,2.8,0.1,4.8-1.1l0.4-0.2
				l0.4,0.3c0.9,0.5,1.8,1.1,2.6,1.8l0.4,0.3L61,35.4c-0.3,2.4-0.1,4,0.7,4.9c0.8,0.9,2.4,1.4,4.7,1.4c0,0,0,0,0,0H67l0.3,0.4
				c0.5,0.9,1,1.8,1.4,2.8l0.2,0.5l-0.3,0.4c-1.4,1.9-2,3.4-1.8,4.6c0.2,1.3,1.3,2.5,3.5,3.8l0.4,0.3l0,0.5c0,0.6,0,1.1-0.1,1.7
				c0,0.6-0.1,1.1-0.2,1.7l-0.1,0.5L69.9,59c-2.3,1-3.5,2-4,3.3c-0.4,1.2-0.1,2.8,1.1,4.8l0.2,0.4L67,68c-0.5,0.9-1.1,1.8-1.8,2.6
				L65,71l-0.5-0.1c-2.4-0.3-4-0.1-4.9,0.7c-0.9,0.8-1.4,2.4-1.4,4.7v0.5l-0.4,0.3c-0.9,0.5-1.8,1-2.8,1.4l-0.5,0.2l-0.4-0.3
				c-1.9-1.4-3.4-2-4.6-1.8c-1.3,0.2-2.5,1.3-3.8,3.5L45.4,80.5z M42.3,78.6c0.3,0,0.7,0.1,1.1,0.1c0.4,0,0.7,0,1.1,0
				c1.5-2.3,3-3.5,4.7-3.9c1.7-0.3,3.5,0.3,5.6,1.8c0.6-0.3,1.2-0.5,1.7-0.8c0.1-2.7,0.7-4.4,2-5.5c1.3-1.1,3.1-1.5,5.8-1.2
				c0.4-0.5,0.7-1,1.1-1.6c-1.2-2.3-1.5-4.2-1-5.8c0.6-1.6,2-3,4.5-4.1c0-0.3,0.1-0.7,0.1-1.1c0-0.4,0-0.7,0-1.1
				c-2.3-1.5-3.5-3-3.9-4.7c-0.3-1.7,0.3-3.5,1.8-5.6c-0.3-0.6-0.5-1.2-0.8-1.7c-2.7-0.1-4.4-0.7-5.5-2c-1.1-1.3-1.5-3.1-1.2-5.8
				c-0.5-0.4-1-0.7-1.6-1.1c-2.3,1.2-4.2,1.5-5.8,1c-1.6-0.6-3-2-4.1-4.5c-0.3,0-0.7-0.1-1.1-0.1c-0.4,0-0.7,0-1.1,0
				c-1.5,2.3-3,3.5-4.7,3.9c-1.7,0.3-3.5-0.3-5.6-1.8c-0.6,0.3-1.2,0.5-1.7,0.8c-0.1,2.7-0.7,4.4-2,5.5s-3.1,1.5-5.8,1.2
				c-0.4,0.5-0.7,1-1.1,1.6c1.2,2.3,1.5,4.2,1,5.8c-0.6,1.6-2,3-4.5,4.1c0,0.3-0.1,0.7-0.1,1.1c0,0.4,0,0.7,0,1.1
				c2.3,1.5,3.5,3,3.9,4.7c0.3,1.7-0.3,3.5-1.8,5.6c0.3,0.6,0.5,1.2,0.8,1.7c2.7,0.1,4.4,0.7,5.5,2c1.1,1.3,1.5,3.1,1.2,5.8
				c0.5,0.4,1,0.7,1.6,1.1c2.3-1.2,4.2-1.5,5.8-1C39.8,74.7,41.1,76.1,42.3,78.6z M45,69.9c-0.3,0-0.7,0-1,0l0,0
				c-8.2-0.6-14.5-7.7-13.9-16c0.3-4,2.1-7.6,5.1-10.3S42,39.7,46,39.9c4,0.3,7.6,2.1,10.3,5.1c2.6,3,3.9,6.9,3.6,10.9
				C59.4,63.8,52.8,69.9,45,69.9z M44.1,68.1c7.3,0.5,13.6-5,14.1-12.3c0.2-3.5-0.9-6.9-3.2-9.6c-2.3-2.7-5.5-4.3-9.1-4.5
				c-3.5-0.2-6.9,0.9-9.6,3.2c-2.7,2.3-4.3,5.5-4.5,9.1C31.3,61.2,36.8,67.6,44.1,68.1L44.1,68.1z"/>
		</g>
		<rect class="st0" width="90" height="90"/>
	</g>
</g>
<g id="Layer_2">
</g>
</svg>
